<svg width="1600" height="1200" viewBox="0 0 1600 1200" fill="none" xmlns="http://www.w3.org/2000/svg">
  <rect width="1600" height="1200" rx="64" fill="#FFFFFF"/>
  <rect x="58" y="58" width="1484" height="1084" rx="50" fill="url(#bg)"/>
  <rect x="138" y="150" width="960" height="860" rx="48" fill="#FFFFFF" stroke="#D9D8F8" stroke-width="10"/>
  <rect x="1160" y="180" width="260" height="340" rx="36" fill="#FFFFFF" stroke="#D9D8F8" stroke-width="8"/>
  <rect x="1202" y="238" width="176" height="14" rx="7" fill="#2F2482" fill-opacity="0.22"/>
  <rect x="1202" y="278" width="152" height="14" rx="7" fill="#2F24AC" fill-opacity="0.14"/>
  <rect x="1202" y="318" width="122" height="14" rx="7" fill="#2F24AC" fill-opacity="0.14"/>
  <rect x="1202" y="390" width="112" height="112" rx="28" fill="#D8D4FF" fill-opacity="0.16"/>
  <text x="1202" y="585" fill="#1A1917" font-size="66" font-family="Georgia, 'Times New Roman', serif">Blackout</text>
  <text x="1202" y="640" fill="#4E4A78" font-size="26" font-family="Avenir Next, Segoe UI, sans-serif">Deep light control</text>
  <circle cx="1275" cy="438" r="34" fill="#2F2482" fill-opacity="0.78"/>
  <rect x="1224" y="823" width="172" height="56" rx="28" fill="#1A1917"/>
  <text x="1265" y="859" fill="#FFFFFF" font-size="22" font-family="Avenir Next, Segoe UI, sans-serif">Winsome</text>
  <rect x="228" y="202" width="784" height="54" rx="27" fill="#1A1917"/><rect x="252" y="256" width="736" height="566" rx="26" fill="#232241"/><circle cx="760" cy="472" r="84" fill="#E7E4FF" fill-opacity="0.92"/><rect x="252" y="256" width="736" height="566" rx="26" stroke="#6D67C9" stroke-width="10"/><rect x="320" y="760" width="600" height="18" rx="9" fill="#A8A2FF" fill-opacity="0.45"/>
  <defs>
    <linearGradient id="bg" x1="160" y1="120" x2="1388" y2="1056" gradientUnits="userSpaceOnUse">
      <stop stop-color="#FFFFFF"/>
      <stop offset="1" stop-color="#F5F4FF"/>
    </linearGradient>
  </defs>
</svg>
