<svg width="1600" height="1200" viewBox="0 0 1600 1200" fill="none" xmlns="http://www.w3.org/2000/svg">
  <rect width="1600" height="1200" rx="64" fill="#FFFFFF"/>
  <rect x="70" y="70" width="1460" height="1060" rx="56" fill="url(#bg)"/>
  <rect x="144" y="168" width="930" height="780" rx="44" fill="#FFFFFF" stroke="#D9D8F8" stroke-width="10"/>
  <rect x="210" y="222" width="798" height="34" rx="17" fill="#2F2482"/>
  <rect x="210" y="286" width="798" height="522" rx="28" fill="#F5F4FF"/>
  <rect x="246" y="322" width="730" height="94" rx="26" fill="#E7E4FF"/>
  <rect x="246" y="452" width="340" height="310" rx="28" fill="#FFFFFF" stroke="#CFCBFF" stroke-width="8"/>
  <rect x="634" y="452" width="342" height="310" rx="28" fill="#FFFFFF" stroke="#CFCBFF" stroke-width="8"/>
  <rect x="1140" y="218" width="256" height="408" rx="34" fill="#FFFFFF" stroke="#D9D8F8" stroke-width="8"/>
  <circle cx="1268" cy="338" r="66" fill="#2F24AC" fill-opacity="0.16"/>
  <circle cx="1268" cy="338" r="34" fill="#2F2482" fill-opacity="0.75"/>
  <text x="1188" y="488" fill="#1A1917" font-size="64" font-family="Georgia, 'Times New Roman', serif">Winsome</text>
  <text x="1188" y="542" fill="#4E4A78" font-size="26" font-family="Avenir Next, Segoe UI, sans-serif">Interior showcase</text>
  <rect x="1140" y="694" width="256" height="176" rx="34" fill="#1A1917"/>
  <rect x="1190" y="744" width="156" height="22" rx="11" fill="#FFFFFF" fill-opacity="0.92"/>
  <rect x="1190" y="786" width="124" height="22" rx="11" fill="#E7E4FF"/>
  <rect x="314" y="524" width="206" height="26" rx="13" fill="#2F2482" fill-opacity="0.22"/>
  <rect x="314" y="572" width="154" height="24" rx="12" fill="#2F24AC" fill-opacity="0.14"/>
  <rect x="704" y="508" width="206" height="214" rx="24" fill="#E7E4FF"/>
  <rect x="736" y="542" width="142" height="18" rx="9" fill="#2F2482" fill-opacity="0.24"/>
  <rect x="736" y="582" width="174" height="18" rx="9" fill="#2F24AC" fill-opacity="0.18"/>
  <defs>
    <linearGradient id="bg" x1="138" y1="120" x2="1412" y2="1064" gradientUnits="userSpaceOnUse">
      <stop stop-color="#FFFFFF"/>
      <stop offset="1" stop-color="#F5F4FF"/>
    </linearGradient>
  </defs>
</svg>
