<svg width="1200" height="630" viewBox="0 0 1200 630" fill="none" xmlns="http://www.w3.org/2000/svg">
  <rect width="1200" height="630" fill="#FFFFFF"/>
  <rect x="44" y="44" width="1112" height="542" rx="36" fill="url(#paint0_linear_1_2)"/>
  <rect x="86" y="104" width="470" height="420" rx="28" fill="#FFFFFF" stroke="#D9D8F8" stroke-width="8"/>
  <rect x="120" y="138" width="402" height="26" rx="13" fill="#2F2482" fill-opacity="0.92"/>
  <rect x="120" y="180" width="402" height="250" rx="20" fill="#F5F4FF"/>
  <rect x="120" y="210" width="402" height="26" fill="#C9C4FF" fill-opacity="0.7"/>
  <rect x="120" y="276" width="402" height="26" fill="#C9C4FF" fill-opacity="0.7"/>
  <rect x="120" y="342" width="402" height="26" fill="#C9C4FF" fill-opacity="0.7"/>
  <rect x="628" y="154" width="416" height="174" rx="28" fill="#FFFFFF" fill-opacity="0.88"/>
  <text x="664" y="238" fill="#1A1917" font-size="72" font-family="Georgia, 'Times New Roman', serif">Winsome</text>
  <text x="664" y="292" fill="#4E4A78" font-size="28" font-family="Avenir Next, Segoe UI, sans-serif">ლოკალურად დამზადებული ჟალუზები და დამცავი ბადეები</text>
  <text x="664" y="388" fill="#1A1917" font-size="40" font-family="Georgia, 'Times New Roman', serif">ინდივიდუალური ზომები • სუფთა მონტაჟი</text>
  <text x="664" y="438" fill="#4E4A78" font-size="28" font-family="Avenir Next, Segoe UI, sans-serif">ფარდა როლეტი, ზებრა, რომაული, პლისე და სხვა</text>
  <rect x="664" y="482" width="248" height="54" rx="27" fill="#2F2482"/>
  <text x="732" y="517" fill="#FFFFFF" font-size="24" font-family="Avenir Next, Segoe UI, sans-serif">winsome.ge</text>
  <defs>
    <linearGradient id="paint0_linear_1_2" x1="126" y1="100" x2="1040" y2="544" gradientUnits="userSpaceOnUse">
      <stop stop-color="#FFFFFF"/>
      <stop offset="1" stop-color="#F5F4FF"/>
    </linearGradient>
  </defs>
</svg>
