<svg width="1600" height="1200" viewBox="0 0 1600 1200" fill="none" xmlns="http://www.w3.org/2000/svg">
  <rect width="1600" height="1200" rx="64" fill="#FFFFFF"/>
  <rect x="68" y="68" width="1464" height="1064" rx="54" fill="#FFFFFF" stroke="#D9D8F8" stroke-width="10"/>
  <path d="M236 284C324 244 436 248 516 308C604 374 734 382 826 324C960 238 1134 246 1250 346C1318 404 1360 492 1360 592C1360 742 1276 882 1158 944L1080 848C1154 808 1208 720 1208 620C1208 542 1176 484 1120 440C1048 382 932 380 852 432C702 526 508 514 368 426C320 396 272 384 224 382L236 284Z" fill="#E7E4FF"/>
  <path d="M296 884C296 742 410 628 552 628C694 628 808 742 808 884C808 980 740 1072 652 1100L552 1170L452 1100C364 1072 296 980 296 884Z" fill="#2F2482"/>
  <circle cx="552" cy="884" r="94" fill="#FFFFFF"/>
  <circle cx="552" cy="884" r="48" fill="#2F24AC" fill-opacity="0.68"/>
  <rect x="944" y="356" width="336" height="332" rx="36" fill="#FFFFFF" stroke="#D9D8F8" stroke-width="8"/>
  <text x="996" y="446" fill="#1A1917" font-size="74" font-family="Georgia, 'Times New Roman', serif">Winsome</text>
  <text x="996" y="512" fill="#4E4A78" font-size="30" font-family="Avenir Next, Segoe UI, sans-serif">Map placeholder</text>
  <text x="996" y="566" fill="#4E4A78" font-size="30" font-family="Avenir Next, Segoe UI, sans-serif">Replace with final embed</text>
</svg>
